<?xml version="1.0" standalone="no"?>
<!DOCTYPE svg PUBLIC "-//W3C//DTD SVG 20010904//EN"
 "http://www.w3.org/TR/2001/REC-SVG-20010904/DTD/svg10.dtd">
<svg version="1.0" xmlns="http://www.w3.org/2000/svg"
 width="450.000000pt" height="450.000000pt" viewBox="0 0 450.000000 450.000000"
 preserveAspectRatio="xMidYMid meet">
<metadata>
Created by potrace 1.14, written by Peter Selinger 2001-2017
</metadata>
<g transform="translate(0.000000,450.000000) scale(0.100000,-0.100000)"
fill="#000000" stroke="none">
<path d="M2263 3170 c-49 -48 -113 -154 -129 -212 -17 -64 -17 -104 -3 -177
14 -69 1 -111 -33 -111 -45 0 -53 14 -57 105 -1 47 -7 85 -11 85 -17 0 -51
-55 -67 -109 -18 -64 -20 -135 -9 -306 8 -113 7 -123 -15 -175 -30 -70 -57
-108 -91 -126 -26 -14 -28 -13 -34 11 -9 37 5 149 27 213 24 71 24 76 -4 49
-12 -12 -34 -31 -49 -41 -15 -11 -29 -30 -32 -42 -4 -13 -12 -29 -19 -36 -43
-46 -93 -194 -103 -308 -8 -88 25 -240 72 -334 30 -61 154 -221 154 -200 0 5
15 -6 33 -23 48 -46 207 -118 207 -93 0 18 -30 70 -41 70 -11 0 -229 213 -229
224 0 5 -9 19 -19 32 -45 57 -35 219 18 284 48 59 94 80 185 80 102 0 148 -15
197 -62 l40 -39 33 34 c55 58 92 70 207 65 74 -3 103 -8 109 -18 6 -8 10 -11
10 -6 0 6 9 0 20 -12 12 -12 24 -22 28 -22 4 0 16 -15 26 -33 28 -47 35 -210
11 -260 -9 -20 -91 -111 -181 -203 -90 -91 -164 -170 -164 -175 0 -5 -7 -9
-16 -9 -8 0 -13 -4 -10 -9 4 -5 0 -12 -6 -14 -8 -3 -6 -6 5 -6 9 -1 17 4 17 9
0 6 5 10 10 10 6 0 23 11 38 25 15 14 41 30 59 36 31 10 86 37 143 70 13 8 36
26 52 41 15 16 31 28 36 28 4 0 15 12 24 28 9 15 25 36 35 47 54 58 133 263
133 344 0 76 -45 221 -122 394 -89 200 -111 275 -106 353 1 30 0 54 -4 54 -15
0 -57 -62 -74 -109 -10 -28 -23 -51 -30 -51 -7 0 -26 28 -43 63 -18 34 -47 89
-66 122 -50 87 -94 184 -107 232 -6 24 -9 88 -6 143 4 111 0 118 -49 70z"/>
<path d="M2592 1923 c-11 -11 -10 -17 3 -35 10 -15 15 -46 15 -96 0 -73 0 -73
-45 -121 -43 -46 -58 -81 -34 -81 7 0 22 11 35 25 13 14 28 25 34 25 5 0 10 7
10 15 0 8 3 15 8 15 9 0 49 88 53 115 4 38 -22 107 -52 137 -12 13 -17 13 -27
1z"/>
</g>
</svg>
